Coordinates
version=1
nRows=43
nColumns=12
inDegrees=yes

Units are S.I. units (second, meters, Newtons, ...)
Angles are in degrees

endheader
time	SC_y	SC_z	SC_x	AC_y	AC_z	AC_x	GH_y	GH_z	GH_yy	EL_x	PS_y
       0.0              -53.49          10.43          23.23          40.78         -11.86         -8.761          13.94          70.21         -126.9          66.97          35.18
   0.02007              -53.49          10.43          23.22          40.78         -11.86         -8.761          13.94           70.2         -126.9          66.97          35.19
   0.04014              -53.49          10.43          23.22          40.78         -11.86         -8.761          13.94          70.19         -126.8          66.97           35.2
   0.06021              -53.49          10.44          23.22          40.78         -11.86         -8.761          13.94          70.18         -126.8          66.97          35.21
   0.08028              -53.49          10.44          23.22          40.78         -11.85         -8.761          13.93          70.17         -126.8          66.97          35.22
    0.1003              -53.48          10.44          23.22          40.79         -11.85         -8.762          13.93          70.16         -126.7          66.97          35.23
    0.1204              -53.48          10.44          23.22          40.79         -11.85         -8.762          13.93          70.15         -126.6          66.98          35.25
    0.1405              -53.48          10.45          23.22          40.79         -11.85         -8.762          13.93          70.14         -126.6          66.98          35.26
    0.1606              -53.48          10.45          23.22           40.8         -11.85         -8.763          13.93          70.13         -126.5          66.98          35.27
    0.1806              -53.47          10.45          23.22           40.8         -11.85         -8.763          13.92          70.12         -126.5          66.98          35.29
    0.2007              -53.47          10.46          23.22           40.8         -11.85         -8.763          13.92           70.1         -126.4          66.98           35.3
    0.2208              -53.47          10.46          23.22          40.81         -11.84         -8.764          13.92          70.09         -126.3          66.98          35.32
    0.2408              -53.46          10.46          23.21          40.81         -11.84         -8.764          13.92          70.07         -126.2          66.98          35.34
    0.2609              -53.46          10.47          23.21          40.82         -11.84         -8.765          13.91          70.06         -126.1          66.98          35.36
     0.281              -53.46          10.47          23.21          40.82         -11.84         -8.765          13.91          70.04         -126.0          66.98          35.38
     0.301              -53.45          10.48          23.21          40.83         -11.83         -8.766           13.9          70.02         -125.9          66.98          35.41
    0.3211              -53.45          10.49          23.21          40.84         -11.83         -8.766           13.9           70.0         -125.8          66.99          35.43
    0.3412              -53.44          10.49          23.21          40.84         -11.83         -8.767           13.9          69.97         -125.7          66.99          35.46
    0.3613              -53.44           10.5           23.2          40.85         -11.82         -8.768          13.89          69.95         -125.5          66.99          35.49
    0.3813              -53.43          10.51           23.2          40.86         -11.82         -8.768          13.89          69.92         -125.4          66.99          35.53
    0.4014              -53.42          10.51           23.2          40.87         -11.82         -8.769          13.88          69.89         -125.2          66.99          35.56
    0.4215              -53.42          10.52           23.2          40.88         -11.81          -8.77          13.87          69.85         -125.0           67.0           35.6
    0.4415              -53.41          10.53          23.19          40.89         -11.81         -8.771          13.87          69.82         -124.8           67.0          35.65
    0.4616               -53.4          10.54          23.19           40.9          -11.8         -8.772          13.86          69.77         -124.6           67.0           35.7
    0.4817              -53.39          10.56          23.19          40.91         -11.79         -8.773          13.85          69.73         -124.3          67.01          35.75
    0.5017              -53.38          10.57          23.18          40.93         -11.79         -8.775          13.84          69.68         -124.1          67.01          35.82
    0.5218              -53.36          10.59          23.18          40.94         -11.78         -8.776          13.83          69.62         -123.8          67.01          35.89
    0.5419              -53.35           10.6          23.17          40.96         -11.77         -8.778          13.82          69.55         -123.4          67.02          35.96
     0.562              -53.33          10.62          23.17          40.98         -11.76          -8.78           13.8          69.48         -123.0          67.02          36.05
     0.582              -53.32          10.65          23.16          41.01         -11.75         -8.782          13.79          69.39         -122.5          67.03          36.15
    0.6021               -53.3          10.67          23.15          41.04         -11.73         -8.785          13.77           69.3         -122.0          67.03          36.27
    0.6222              -53.27           10.7          23.14          41.07         -11.72         -8.788          13.75          69.19         -121.4          67.04           36.4
    0.6422              -53.24          10.73          23.13           41.1          -11.7         -8.791          13.72          69.06         -120.8          67.05          36.55
    0.6623              -53.21          10.77          23.12          41.15         -11.68         -8.795          13.69          68.91         -120.0          67.06          36.73
    0.6824              -53.17          10.82           23.1           41.2         -11.66           -8.8          13.66          68.74         -119.0          67.07          36.93
    0.7024              -53.13          10.87          23.09          41.26         -11.63         -8.806          13.62          68.54         -117.9          67.09          37.17
    0.7225              -53.08          10.94          23.07          41.32          -11.6         -8.812          13.57           68.3         -116.6           67.1          37.46
    0.7426              -53.01          11.02          23.04          41.41         -11.56          -8.82          13.52          68.01         -115.1          67.12          37.81
    0.7627              -52.94          11.11          23.02          41.51         -11.51         -8.829          13.45          67.66         -113.2          67.15          38.23
    0.7827              -52.84          11.22          22.98          41.63         -11.45         -8.841          13.37          67.23         -110.9          67.18          38.74
    0.8028              -52.73          11.36          22.94          41.78         -11.38         -8.855          13.27           66.7         -108.0          67.21          39.37
    0.8229              -52.59          11.54          22.88          41.97         -11.29         -8.873          13.14          66.04         -104.4          67.26          40.15
    0.8429              -52.41          11.76          22.81          42.21         -11.17         -8.896          12.98          65.21         -99.97          67.32          41.14
